<?xml version="1.0" encoding="UTF-8"?><svg id="Layer_1" xmlns="http://www.w3.org/2000/svg" xmlns:xlink="http://www.w3.org/1999/xlink" viewBox="0 0 425.67 457.36"><defs><style>.cls-1,.cls-2{font-family:Consolas, Consolas;}.cls-3,.cls-4,.cls-2{font-size:12px;}.cls-3,.cls-5{fill:#231f20;}.cls-4,.cls-6{font-family:Consolas-Bold, Consolas;font-weight:700;}.cls-4,.cls-2{fill:#fff;}.cls-7{fill:#be6528;}.cls-8{fill:#f1a01f;}.cls-9{fill:#2f3d40;stroke:#fff;stroke-miterlimit:10;}.cls-10{fill:#3b8c6e;}.cls-11{fill:#f15f60;}</style></defs><rect class="cls-9" x="27.54" y="281.33" width="145.73" height="175.52" rx="5" ry="5"/><text class="cls-4" transform="translate(83.91 295.28)"><tspan x="0" y="0">class</tspan></text><rect class="cls-9" x=".5" y=".5" width="299.12" height="175.52" rx="5" ry="5"/><rect class="cls-11" x="12.51" y="121.41" width="275.1" height="43" rx="5" ry="5"/><text class="cls-3" transform="translate(22.14 135.73)"><tspan class="cls-1" x="0" y="0">function / method </tspan><tspan class="cls-6" x="118.76" y="0">(function)</tspan></text><text class="cls-4" transform="translate(12.51 16.51)"><tspan x="0" y="0">class</tspan></text><rect class="cls-8" x="12.51" y="26.8" width="275.1" height="43" rx="5" ry="5"/><text class="cls-3" transform="translate(22.14 41.12)"><tspan class="cls-1" x="0" y="0" xml:space="preserve">variable global  </tspan><tspan class="cls-6" x="112.16" y="0">(data)</tspan></text><text class="cls-3" transform="translate(22.14 135.73)"><tspan class="cls-1" x="0" y="0">function / method </tspan><tspan class="cls-6" x="118.76" y="0">(function)</tspan></text><rect class="cls-10" x="12.51" y="74.1" width="275.1" height="43" rx="5" ry="5"/><text class="cls-2" transform="translate(22.14 88.43)"><tspan x="0" y="0">class constructor</tspan></text><image width="800" height="800" transform="translate(33.54 302.24) scale(.17)" xlink:href="../../Downloads/irasutoya/cooking_chef_man_asia.png"/><rect class="cls-9" x="199.17" y="281.33" width="226.01" height="175.52" rx="5" ry="5"/><text class="cls-4" transform="translate(211.18 297.35)"><tspan x="0" y="0">class</tspan></text><rect class="cls-8" x="208.24" y="304.94" width="207.85" height="70.17" rx="5" ry="5"/><g><path class="cls-5" d="M216.89,316.68h1.16l1.44,3.89,.31,.95,.32-.97,1.43-3.87h1.12l-2.31,5.88h-1.17l-2.3-5.88Z"/><path class="cls-5" d="M227.82,322.56l-.02-.79c-.32,.32-.65,.54-.98,.69s-.68,.21-1.04,.21c-.34,0-.62-.04-.86-.13s-.43-.2-.59-.35-.27-.33-.34-.53-.11-.42-.11-.66c0-.59,.22-1.05,.66-1.39s1.09-.5,1.95-.5h1.22v-.52c0-.35-.11-.63-.33-.83s-.56-.31-1.02-.31c-.33,0-.66,.04-.98,.11s-.66,.18-1,.32v-.92c.13-.05,.27-.09,.43-.14s.33-.08,.5-.12,.36-.06,.55-.08,.38-.03,.58-.03c.36,0,.68,.04,.96,.12s.53,.2,.72,.36,.35,.36,.45,.6,.16,.53,.16,.86v4.05h-.91Zm-.11-2.68h-1.29c-.25,0-.47,.03-.66,.08s-.33,.12-.45,.22-.2,.21-.26,.34-.08,.28-.08,.44c0,.11,.02,.22,.05,.33s.09,.2,.17,.28,.18,.14,.3,.19,.28,.07,.46,.07c.23,0,.5-.07,.81-.21s.62-.37,.96-.68v-1.04Z"/><path class="cls-5" d="M230.88,316.68h.93l.03,1.08c.35-.42,.69-.72,1.03-.91s.68-.28,1.02-.28c.61,0,1.07,.2,1.39,.59s.46,.98,.44,1.76h-1.03c.01-.52-.06-.89-.23-1.12s-.4-.35-.71-.35c-.14,0-.27,.02-.41,.07s-.28,.13-.43,.23-.3,.25-.47,.41-.34,.37-.53,.61v3.78h-1.03v-5.88Z"/><path class="cls-5" d="M239.24,317.52h-1.74v-.84h2.77v5.03h1.75v.85h-4.72v-.85h1.93v-4.19Zm.36-3.31c.11,0,.22,.02,.32,.06s.18,.1,.25,.17,.13,.16,.17,.25,.06,.2,.06,.31-.02,.21-.06,.31-.1,.18-.17,.26-.16,.13-.25,.17-.2,.06-.32,.06-.22-.02-.32-.06-.18-.1-.25-.17-.13-.16-.17-.26-.06-.2-.06-.31,.02-.22,.06-.31,.1-.18,.17-.25,.16-.13,.25-.17,.2-.06,.32-.06Z"/><path class="cls-5" d="M247.61,322.56l-.02-.79c-.32,.32-.65,.54-.98,.69s-.68,.21-1.04,.21c-.34,0-.62-.04-.86-.13s-.43-.2-.59-.35-.27-.33-.34-.53-.11-.42-.11-.66c0-.59,.22-1.05,.66-1.39s1.09-.5,1.95-.5h1.22v-.52c0-.35-.11-.63-.33-.83s-.56-.31-1.02-.31c-.33,0-.66,.04-.98,.11s-.66,.18-1,.32v-.92c.13-.05,.27-.09,.43-.14s.33-.08,.5-.12,.36-.06,.55-.08,.38-.03,.58-.03c.36,0,.68,.04,.96,.12s.53,.2,.72,.36,.35,.36,.45,.6,.16,.53,.16,.86v4.05h-.91Zm-.11-2.68h-1.29c-.25,0-.47,.03-.66,.08s-.33,.12-.45,.22-.2,.21-.26,.34-.08,.28-.08,.44c0,.11,.02,.22,.05,.33s.09,.2,.17,.28,.18,.14,.3,.19,.28,.07,.46,.07c.23,0,.5-.07,.81-.21s.62-.37,.96-.68v-1.04Z"/><path class="cls-5" d="M255.46,319.51c0,.49-.07,.92-.2,1.31s-.33,.71-.57,.98-.55,.47-.91,.62-.76,.21-1.2,.21c-.35,0-.7-.03-1.07-.1s-.72-.17-1.08-.32v-7.93h1.02v2.28l-.05,1.09c.29-.39,.61-.67,.94-.83s.69-.24,1.08-.24c.34,0,.63,.07,.88,.21s.47,.34,.64,.59,.3,.56,.39,.93,.13,.76,.13,1.21Zm-1.04,.05c0-.31-.02-.59-.07-.85s-.12-.48-.21-.66-.22-.33-.38-.43-.33-.16-.54-.16c-.13,0-.26,.02-.39,.06s-.27,.11-.41,.21-.29,.22-.45,.38-.33,.35-.51,.59v2.85c.2,.08,.4,.14,.61,.18s.4,.07,.59,.07c.23,0,.46-.04,.67-.11s.4-.2,.56-.37,.29-.4,.39-.69,.14-.64,.14-1.07Z"/><path class="cls-5" d="M259.03,315.12h-1.74v-.84h2.77v7.43h1.75v.85h-4.72v-.85h1.93v-6.59Z"/><path class="cls-5" d="M268.6,319.31c0,.14,0,.27,0,.36s0,.19-.02,.28h-4.13c0,.6,.17,1.06,.5,1.39s.82,.48,1.45,.48c.17,0,.34,0,.52-.02s.34-.03,.5-.06,.31-.05,.46-.08,.28-.06,.41-.1v.84c-.28,.08-.59,.14-.94,.19s-.71,.07-1.09,.07c-.5,0-.94-.07-1.3-.21s-.66-.33-.89-.59-.4-.58-.52-.96-.17-.8-.17-1.28c0-.41,.06-.81,.18-1.17s.29-.69,.52-.97,.51-.5,.84-.67,.71-.25,1.13-.25,.77,.06,1.09,.19,.58,.31,.8,.55,.38,.52,.49,.86,.17,.72,.17,1.13Zm-1.06-.15c.01-.26-.01-.5-.08-.72s-.16-.4-.29-.56-.29-.28-.49-.37-.42-.13-.68-.13c-.22,0-.43,.04-.61,.13s-.34,.21-.47,.36-.24,.34-.32,.56-.13,.46-.15,.72h3.09Z"/><path class="cls-5" d="M281.06,317.51c.11,.14,.19,.3,.25,.48s.09,.38,.09,.59c0,.3-.06,.58-.17,.83s-.27,.47-.47,.65-.45,.32-.73,.42-.59,.15-.93,.15c-.25,0-.48-.03-.69-.08s-.38-.12-.51-.2c-.07,.11-.14,.21-.19,.31s-.08,.21-.08,.33c0,.15,.07,.27,.21,.37s.33,.15,.57,.16l1.55,.06c.29,0,.56,.04,.81,.11s.46,.16,.64,.29,.32,.28,.42,.46,.15,.4,.15,.64c0,.26-.06,.51-.17,.74s-.29,.44-.52,.62-.54,.32-.9,.42-.79,.16-1.29,.16-.88-.04-1.22-.11-.61-.18-.82-.32-.37-.29-.47-.48-.15-.39-.15-.61c0-.29,.07-.53,.2-.75s.34-.42,.62-.62c-.1-.05-.19-.11-.26-.18s-.13-.15-.18-.23-.08-.17-.11-.27-.04-.19-.04-.28c0-.25,.06-.49,.18-.7s.26-.41,.42-.6c-.07-.09-.14-.18-.2-.26s-.11-.18-.15-.28-.07-.21-.09-.32-.03-.25-.03-.4c0-.3,.06-.58,.17-.83s.27-.47,.47-.65,.44-.32,.73-.42,.6-.15,.94-.15c.14,0,.28,0,.42,.03s.25,.04,.35,.08h2.13v.83h-.94Zm-3.54,5.9c0,.28,.14,.48,.43,.61s.69,.19,1.21,.19c.32,0,.6-.03,.82-.09s.4-.14,.53-.23,.23-.21,.29-.33,.09-.25,.09-.38c0-.24-.1-.41-.29-.53s-.49-.18-.9-.2l-1.54-.05c-.13,.09-.24,.17-.32,.25s-.15,.17-.2,.25-.08,.17-.1,.25c-.02,.08-.03,.17-.03,.25Zm.31-4.81c0,.19,.03,.36,.09,.52s.15,.29,.26,.4,.25,.19,.4,.25,.33,.09,.51,.09c.2,0,.38-.03,.54-.1s.29-.16,.4-.28,.19-.25,.25-.4,.08-.31,.08-.47c0-.19-.03-.36-.09-.52s-.15-.29-.26-.4-.25-.19-.4-.25-.33-.09-.51-.09c-.2,0-.38,.04-.54,.11s-.29,.16-.4,.28-.19,.25-.25,.4-.08,.31-.08,.47Z"/><path class="cls-5" d="M285.42,315.12h-1.74v-.84h2.77v7.43h1.75v.85h-4.72v-.85h1.93v-6.59Z"/><path class="cls-5" d="M295.14,319.57c0,.46-.06,.88-.19,1.26s-.31,.71-.56,.98-.54,.48-.88,.63-.74,.23-1.18,.23-.8-.07-1.13-.2-.62-.32-.85-.58-.41-.57-.53-.94-.18-.81-.18-1.29c0-.46,.06-.87,.19-1.25s.31-.7,.56-.97,.54-.48,.88-.63,.74-.23,1.18-.23,.8,.07,1.13,.2,.62,.32,.85,.57,.41,.57,.53,.94,.18,.8,.18,1.29Zm-1.04,.05c0-.36-.04-.68-.12-.95s-.19-.5-.34-.68-.33-.32-.54-.41-.45-.14-.71-.14c-.3,0-.57,.06-.78,.18s-.39,.28-.53,.48-.24,.43-.3,.69-.1,.54-.1,.83c0,.36,.04,.68,.12,.96s.19,.5,.34,.68,.33,.32,.54,.41,.45,.14,.71,.14c.3,0,.57-.06,.78-.18s.39-.28,.53-.48,.24-.43,.3-.69,.1-.54,.1-.83Z"/><path class="cls-5" d="M301.64,319.51c0,.49-.07,.92-.2,1.31s-.33,.71-.57,.98-.55,.47-.91,.62-.76,.21-1.2,.21c-.35,0-.7-.03-1.07-.1s-.72-.17-1.08-.32v-7.93h1.02v2.28l-.05,1.09c.29-.39,.61-.67,.94-.83s.69-.24,1.08-.24c.34,0,.63,.07,.88,.21s.47,.34,.64,.59,.3,.56,.39,.93,.13,.76,.13,1.21Zm-1.04,.05c0-.31-.02-.59-.07-.85s-.12-.48-.21-.66-.22-.33-.38-.43-.33-.16-.54-.16c-.13,0-.26,.02-.39,.06s-.27,.11-.41,.21-.29,.22-.45,.38-.33,.35-.51,.59v2.85c.2,.08,.4,.14,.61,.18s.4,.07,.59,.07c.23,0,.46-.04,.67-.11s.4-.2,.56-.37,.29-.4,.39-.69,.14-.64,.14-1.07Z"/><path class="cls-5" d="M306.99,322.56l-.02-.79c-.32,.32-.65,.54-.98,.69s-.68,.21-1.04,.21c-.34,0-.62-.04-.86-.13s-.43-.2-.59-.35-.27-.33-.34-.53-.11-.42-.11-.66c0-.59,.22-1.05,.66-1.39s1.09-.5,1.95-.5h1.22v-.52c0-.35-.11-.63-.33-.83s-.56-.31-1.02-.31c-.33,0-.66,.04-.98,.11s-.66,.18-1,.32v-.92c.13-.05,.27-.09,.43-.14s.33-.08,.5-.12,.36-.06,.55-.08,.38-.03,.58-.03c.36,0,.68,.04,.96,.12s.53,.2,.72,.36,.35,.36,.45,.6,.16,.53,.16,.86v4.05h-.91Zm-.11-2.68h-1.29c-.25,0-.47,.03-.66,.08s-.33,.12-.45,.22-.2,.21-.26,.34-.08,.28-.08,.44c0,.11,.02,.22,.05,.33s.09,.2,.17,.28,.18,.14,.3,.19,.28,.07,.46,.07c.23,0,.5-.07,.81-.21s.62-.37,.96-.68v-1.04Z"/><path class="cls-5" d="M311.82,315.12h-1.74v-.84h2.77v7.43h1.75v.85h-4.72v-.85h1.93v-6.59Z"/><path class="cls-5" d="M326.51,325.02c-.95-.8-1.66-1.67-2.14-2.59-.47-.92-.71-1.91-.71-2.98,0-.59,.07-1.16,.21-1.68s.34-1.03,.59-1.49,.56-.9,.91-1.31,.74-.79,1.16-1.15l.81,.81c-.76,.68-1.33,1.42-1.72,2.21s-.57,1.63-.57,2.5,.19,1.74,.57,2.56,.96,1.56,1.72,2.24l-.85,.87Z"/><path class="cls-5" d="M333.23,322.56l-.04-.88c-.12,.15-.25,.29-.39,.42s-.28,.23-.43,.32-.32,.16-.49,.21-.37,.07-.58,.07c-.35,0-.66-.07-.94-.21s-.5-.34-.69-.6-.33-.58-.42-.95-.15-.79-.15-1.24c0-.55,.08-1.02,.23-1.42s.37-.73,.64-1,.6-.46,.97-.59,.78-.19,1.22-.19c.15,0,.3,0,.45,.03s.28,.04,.4,.08v-2.33h1.43v8.28h-1.24Zm-2.61-2.93c0,.33,.02,.61,.07,.84s.11,.42,.2,.57,.2,.26,.33,.33,.28,.1,.44,.1c.24,0,.47-.1,.69-.29s.45-.46,.7-.8v-2.6c-.11-.04-.25-.08-.42-.11s-.33-.04-.5-.04c-.23,0-.44,.05-.62,.14s-.34,.23-.47,.4-.23,.38-.3,.63-.11,.53-.11,.83Z"/><path class="cls-5" d="M339.81,322.56l-.04-.78c-.12,.13-.26,.25-.39,.37s-.29,.21-.45,.29-.34,.15-.54,.19-.41,.07-.64,.07c-.3,0-.57-.04-.8-.13s-.42-.21-.58-.38-.27-.35-.35-.58-.12-.48-.12-.75,.06-.54,.18-.78,.3-.44,.54-.62,.55-.31,.91-.4,.79-.15,1.29-.15h.78v-.36c0-.15-.02-.29-.06-.41s-.11-.23-.21-.31-.22-.15-.37-.2-.34-.07-.56-.07c-.35,0-.7,.04-1.04,.12s-.67,.19-.99,.34v-1.14c.29-.11,.61-.21,.99-.28s.76-.11,1.16-.11c.44,0,.82,.04,1.14,.13s.58,.21,.78,.38,.36,.38,.45,.63,.15,.55,.15,.88v4.07h-1.22Zm-.21-2.63h-.87c-.24,0-.45,.02-.62,.07s-.3,.11-.41,.19-.18,.18-.23,.28-.07,.22-.07,.34c0,.24,.08,.43,.23,.55s.37,.19,.64,.19c.2,0,.41-.07,.62-.22s.45-.35,.71-.62v-.8Z"/><path class="cls-5" d="M347.59,322.5c-.26,.06-.52,.11-.78,.14s-.51,.05-.74,.05c-.39,0-.73-.04-1.01-.12s-.52-.21-.7-.38-.32-.38-.41-.64-.13-.57-.13-.93v-2.91h-1.6v-1.11h1.6v-1.52l1.46-.38v1.9h2.31v1.11h-2.31v2.8c0,.34,.08,.6,.23,.77s.42,.26,.79,.26c.23,0,.46-.02,.69-.06s.43-.08,.61-.13v1.14Z"/><path class="cls-5" d="M353.01,322.56l-.04-.78c-.12,.13-.26,.25-.39,.37s-.29,.21-.45,.29-.34,.15-.54,.19-.41,.07-.64,.07c-.3,0-.57-.04-.8-.13s-.42-.21-.58-.38-.27-.35-.35-.58-.12-.48-.12-.75,.06-.54,.18-.78,.3-.44,.54-.62,.55-.31,.91-.4,.79-.15,1.29-.15h.78v-.36c0-.15-.02-.29-.06-.41s-.11-.23-.21-.31-.22-.15-.37-.2-.34-.07-.56-.07c-.35,0-.7,.04-1.04,.12s-.67,.19-.99,.34v-1.14c.29-.11,.61-.21,.99-.28s.76-.11,1.16-.11c.44,0,.82,.04,1.14,.13s.58,.21,.78,.38,.36,.38,.45,.63,.15,.55,.15,.88v4.07h-1.22Zm-.21-2.63h-.87c-.24,0-.45,.02-.62,.07s-.3,.11-.41,.19-.18,.18-.23,.28-.07,.22-.07,.34c0,.24,.08,.43,.23,.55s.37,.19,.64,.19c.2,0,.41-.07,.62-.22s.45-.35,.71-.62v-.8Z"/><path class="cls-5" d="M357.24,313.82c.96,.8,1.67,1.66,2.14,2.58s.7,1.92,.7,2.99c0,.59-.07,1.15-.21,1.68s-.34,1.03-.59,1.49-.55,.91-.91,1.31-.74,.79-1.16,1.14l-.82-.81c.77-.68,1.34-1.42,1.72-2.22s.57-1.63,.57-2.51-.19-1.73-.57-2.55-.96-1.57-1.72-2.25l.84-.85Z"/><path class="cls-5" d="M217.98,334.4v-1.27h3.64v1.27h-3.64Z"/><path class="cls-5" d="M238.84,336.96l-2.05-4.57-.42-.98v5.55h-1.31v-7.66h1.77l2.09,4.6,.37,.9v-5.5h1.31v7.66h-1.76Z"/><path class="cls-5" d="M245.65,336.96l-.04-.78c-.12,.13-.26,.25-.39,.37s-.29,.21-.45,.29-.34,.15-.54,.19-.41,.07-.64,.07c-.3,0-.57-.04-.8-.13s-.42-.21-.58-.38-.27-.35-.35-.58-.12-.48-.12-.75,.06-.54,.18-.78,.3-.44,.54-.62,.55-.31,.91-.4,.79-.15,1.29-.15h.78v-.36c0-.15-.02-.29-.06-.41s-.11-.23-.21-.31-.22-.15-.37-.2-.34-.07-.56-.07c-.35,0-.7,.04-1.04,.12s-.67,.19-.99,.34v-1.14c.29-.11,.61-.21,.99-.28s.76-.11,1.16-.11c.44,0,.82,.04,1.14,.13s.58,.21,.78,.38,.36,.38,.45,.63,.15,.55,.15,.88v4.07h-1.22Zm-.21-2.63h-.87c-.24,0-.45,.02-.62,.07s-.3,.11-.41,.19-.18,.18-.23,.28-.07,.22-.07,.34c0,.24,.08,.43,.23,.55s.37,.19,.64,.19c.2,0,.41-.07,.62-.22s.45-.35,.71-.62v-.8Z"/><path class="cls-5" d="M252.72,336.96v-4.05c0-.15,0-.28-.01-.39s-.02-.2-.05-.28-.06-.13-.1-.17-.11-.06-.18-.06c-.12,0-.24,.08-.36,.25s-.25,.44-.4,.84v3.86h-1.22v-4.05c0-.15,0-.28-.01-.39s-.02-.2-.05-.28-.06-.13-.11-.17-.11-.06-.19-.06c-.1,0-.21,.08-.34,.25s-.26,.44-.42,.84v3.86h-1.24v-5.95h1.06l.02,.87c.09-.18,.17-.33,.26-.45s.18-.23,.28-.31,.2-.14,.31-.17,.24-.05,.38-.05c.33,0,.58,.09,.76,.26s.27,.42,.3,.72c.09-.18,.19-.33,.28-.45s.19-.23,.29-.31,.21-.14,.32-.17,.24-.05,.38-.05c.43,0,.75,.15,.96,.45s.31,.75,.31,1.34v4.27h-1.24Z"/><path class="cls-5" d="M258.85,336.96l-.04-.78c-.12,.13-.26,.25-.39,.37s-.29,.21-.45,.29-.34,.15-.54,.19-.41,.07-.64,.07c-.3,0-.57-.04-.8-.13s-.42-.21-.58-.38-.27-.35-.35-.58-.12-.48-.12-.75,.06-.54,.18-.78,.3-.44,.54-.62,.55-.31,.91-.4,.79-.15,1.29-.15h.78v-.36c0-.15-.02-.29-.06-.41s-.11-.23-.21-.31-.22-.15-.37-.2-.34-.07-.56-.07c-.35,0-.7,.04-1.04,.12s-.67,.19-.99,.34v-1.14c.29-.11,.61-.21,.99-.28s.76-.11,1.16-.11c.44,0,.82,.04,1.14,.13s.58,.21,.78,.38,.36,.38,.45,.63,.15,.55,.15,.88v4.07h-1.22Zm-.21-2.63h-.87c-.24,0-.45,.02-.62,.07s-.3,.11-.41,.19-.18,.18-.23,.28-.07,.22-.07,.34c0,.24,.08,.43,.23,.55s.37,.19,.64,.19c.2,0,.41-.07,.62-.22s.45-.35,.71-.62v-.8Z"/><path class="cls-5" d="M217.98,348.8v-1.27h3.64v1.27h-3.64Z"/><path class="cls-5" d="M238.84,351.36l-2.05-4.57-.42-.98v5.55h-1.31v-7.66h1.77l2.09,4.6,.37,.9v-5.5h1.31v7.66h-1.76Z"/><path class="cls-5" d="M247.28,348.33c0,.47-.07,.9-.2,1.29s-.32,.72-.57,1-.56,.49-.92,.64-.78,.23-1.24,.23-.84-.06-1.18-.19-.64-.32-.88-.58-.43-.58-.56-.96-.19-.83-.19-1.34c0-.47,.07-.9,.2-1.29s.33-.72,.58-.99,.56-.49,.92-.64,.77-.23,1.23-.23,.84,.07,1.19,.2,.64,.33,.88,.58,.43,.58,.55,.96,.19,.82,.19,1.32Zm-1.49,.04c0-.62-.12-1.08-.35-1.39s-.58-.47-1.03-.47c-.25,0-.46,.05-.64,.15s-.32,.23-.43,.4-.2,.37-.25,.59-.08,.47-.08,.73c0,.62,.12,1.09,.38,1.4s.59,.47,1.03,.47c.24,0,.45-.05,.62-.14s.32-.23,.43-.4,.19-.37,.25-.6,.08-.48,.08-.74Z"/><path class="cls-5" d="M258.9,351.36v-3.33h-2.6v3.33h-1.44v-7.66h1.44v3.08h2.6v-3.08h1.44v7.66h-1.44Z"/><path class="cls-5" d="M267,346.14c0,.4-.07,.77-.2,1.1s-.33,.63-.59,.88-.59,.44-.98,.57-.84,.21-1.36,.21h-.73v2.46h-1.45v-7.66h2.24c.5,0,.93,.05,1.32,.16s.7,.26,.96,.47,.46,.46,.59,.76,.2,.65,.2,1.04Zm-1.51,.1c0-.2-.03-.39-.1-.55s-.16-.31-.29-.42-.3-.21-.5-.27-.44-.09-.71-.09h-.76v2.81h.8c.25,0,.47-.03,.66-.1s.35-.17,.48-.3,.23-.28,.3-.46,.1-.38,.1-.6Z"/><path class="cls-5" d="M217.98,363.2v-1.27h3.64v1.27h-3.64Z"/><path class="cls-5" d="M239.81,363.47c0,.36-.06,.69-.17,.98s-.28,.55-.5,.76-.49,.37-.81,.49-.7,.17-1.13,.17c-.32,0-.62-.04-.91-.11s-.55-.17-.77-.28v-1.39c.1,.08,.21,.16,.34,.23s.27,.13,.42,.18,.3,.09,.46,.12,.31,.04,.46,.04c.13,0,.26-.02,.4-.07s.26-.12,.37-.23,.2-.25,.27-.43,.11-.4,.11-.66v-3.98h-2.77v-1.19h4.24v5.37Z"/><path class="cls-5" d="M245.65,365.76l-.04-.78c-.12,.13-.26,.25-.39,.37s-.29,.21-.45,.29-.34,.15-.54,.19-.41,.07-.64,.07c-.3,0-.57-.04-.8-.13s-.42-.21-.58-.38-.27-.35-.35-.58-.12-.48-.12-.75,.06-.54,.18-.78,.3-.44,.54-.62,.55-.31,.91-.4,.79-.15,1.29-.15h.78v-.36c0-.15-.02-.29-.06-.41s-.11-.23-.21-.31-.22-.15-.37-.2-.34-.07-.56-.07c-.35,0-.7,.04-1.04,.12s-.67,.19-.99,.34v-1.14c.29-.11,.61-.21,.99-.28s.76-.11,1.16-.11c.44,0,.82,.04,1.14,.13s.58,.21,.78,.38,.36,.38,.45,.63,.15,.55,.15,.88v4.07h-1.22Zm-.21-2.63h-.87c-.24,0-.45,.02-.62,.07s-.3,.11-.41,.19-.18,.18-.23,.28-.07,.22-.07,.34c0,.24,.08,.43,.23,.55s.37,.19,.64,.19c.2,0,.41-.07,.62-.22s.45-.35,.71-.62v-.8Z"/><path class="cls-5" d="M253.87,362.68c0,.55-.08,1.02-.23,1.42s-.37,.73-.64,.99-.6,.46-.98,.59-.78,.19-1.22,.19-.84-.03-1.21-.1-.73-.15-1.07-.26v-8.03h1.43v1.95l-.06,1.17c.21-.28,.47-.5,.75-.67s.63-.25,1.03-.25c.35,0,.66,.07,.94,.21s.5,.34,.69,.6,.33,.57,.42,.94,.15,.78,.15,1.25Zm-1.5,.06c0-.33-.02-.61-.07-.84s-.11-.42-.2-.57-.2-.26-.32-.33-.27-.1-.44-.1c-.24,0-.47,.1-.69,.29s-.45,.46-.7,.8v2.6c.11,.04,.25,.08,.42,.11s.33,.04,.51,.04c.23,0,.43-.05,.62-.14s.34-.23,.47-.4,.23-.38,.3-.63,.11-.53,.11-.83Z"/><path class="cls-5" d="M258.85,365.76l-.04-.78c-.12,.13-.26,.25-.39,.37s-.29,.21-.45,.29-.34,.15-.54,.19-.41,.07-.64,.07c-.3,0-.57-.04-.8-.13s-.42-.21-.58-.38-.27-.35-.35-.58-.12-.48-.12-.75,.06-.54,.18-.78,.3-.44,.54-.62,.55-.31,.91-.4,.79-.15,1.29-.15h.78v-.36c0-.15-.02-.29-.06-.41s-.11-.23-.21-.31-.22-.15-.37-.2-.34-.07-.56-.07c-.35,0-.7,.04-1.04,.12s-.67,.19-.99,.34v-1.14c.29-.11,.61-.21,.99-.28s.76-.11,1.16-.11c.44,0,.82,.04,1.14,.13s.58,.21,.78,.38,.36,.38,.45,.63,.15,.55,.15,.88v4.07h-1.22Zm-.21-2.63h-.87c-.24,0-.45,.02-.62,.07s-.3,.11-.41,.19-.18,.18-.23,.28-.07,.22-.07,.34c0,.24,.08,.43,.23,.55s.37,.19,.64,.19c.2,0,.41-.07,.62-.22s.45-.35,.71-.62v-.8Z"/><path class="cls-5" d="M266.62,365.7c-.26,.06-.52,.11-.78,.14s-.51,.05-.74,.05c-.39,0-.73-.04-1.01-.12s-.52-.21-.7-.38-.32-.38-.41-.64-.13-.57-.13-.93v-2.91h-1.6v-1.11h1.6v-1.52l1.46-.38v1.9h2.31v1.11h-2.31v2.8c0,.34,.08,.6,.23,.77s.42,.26,.79,.26c.23,0,.46-.02,.69-.06s.43-.08,.61-.13v1.14Z"/><path class="cls-5" d="M272.04,365.76l-.04-.78c-.12,.13-.26,.25-.39,.37s-.29,.21-.45,.29-.34,.15-.54,.19-.41,.07-.64,.07c-.3,0-.57-.04-.8-.13s-.42-.21-.58-.38-.27-.35-.35-.58-.12-.48-.12-.75,.06-.54,.18-.78,.3-.44,.54-.62,.55-.31,.91-.4,.79-.15,1.29-.15h.78v-.36c0-.15-.02-.29-.06-.41s-.11-.23-.21-.31-.22-.15-.37-.2-.34-.07-.56-.07c-.35,0-.7,.04-1.04,.12s-.67,.19-.99,.34v-1.14c.29-.11,.61-.21,.99-.28s.76-.11,1.16-.11c.44,0,.82,.04,1.14,.13s.58,.21,.78,.38,.36,.38,.45,.63,.15,.55,.15,.88v4.07h-1.22Zm-.21-2.63h-.87c-.24,0-.45,.02-.62,.07s-.3,.11-.41,.19-.18,.18-.23,.28-.07,.22-.07,.34c0,.24,.08,.43,.23,.55s.37,.19,.64,.19c.2,0,.41-.07,.62-.22s.45-.35,.71-.62v-.8Z"/><path class="cls-5" d="M278.46,365.76v-3.88c0-.65-.24-.98-.73-.98-.24,0-.47,.1-.69,.29s-.45,.46-.7,.8v3.77h-1.43v-5.95h1.24l.04,.88c.12-.15,.25-.29,.38-.42s.27-.23,.42-.32,.32-.16,.49-.2,.37-.07,.59-.07c.3,0,.57,.05,.8,.15s.42,.24,.57,.42,.27,.4,.34,.66,.11,.54,.11,.86v4h-1.43Z"/></g><text class="cls-4" transform="translate(87.21 449.33)"><tspan x="0" y="0">koki</tspan></text><rect class="cls-11" x="208.24" y="380.5" width="207.85" height="70.17" rx="5" ry="5"/><g><path class="cls-5" d="M222.66,397.99c-.54-.11-1-.17-1.38-.17-.92,0-1.38,.48-1.38,1.44v1.03h2.58v.85h-2.58v4.18h-1.04v-4.18h-1.89v-.85h1.89v-.97c0-1.57,.82-2.35,2.45-2.35,.41,0,.86,.05,1.35,.14v.88Z"/><path class="cls-5" d="M228.77,405.32h-.91l-.04-.95c-.18,.2-.34,.37-.5,.51s-.32,.24-.47,.33-.31,.14-.47,.17-.33,.05-.5,.05c-.61,0-1.06-.18-1.37-.53s-.46-.89-.46-1.61v-3.84h1.02v3.76c0,.9,.34,1.35,1.02,1.35,.12,0,.25-.02,.37-.06s.24-.1,.38-.19,.27-.22,.42-.37,.32-.35,.51-.59v-3.9h1.02v5.88Z"/><path class="cls-5" d="M230.64,399.44h.91l.04,.95c.17-.2,.34-.37,.5-.51s.32-.24,.47-.33,.31-.14,.47-.17,.33-.05,.5-.05c.61,0,1.06,.18,1.37,.54s.47,.9,.47,1.61v3.84h-1.02v-3.76c0-.46-.09-.8-.26-1.02s-.43-.33-.77-.33c-.12,0-.25,.02-.37,.06s-.24,.1-.37,.19-.27,.22-.42,.37-.32,.35-.51,.59v3.9h-1.02v-5.88Z"/><path class="cls-5" d="M241.81,405.1c-.27,.1-.54,.18-.82,.23s-.57,.07-.86,.07c-.93,0-1.65-.25-2.15-.76s-.75-1.24-.75-2.21c0-.46,.07-.89,.22-1.27s.35-.7,.61-.97,.57-.48,.94-.62,.76-.22,1.2-.22c.3,0,.59,.02,.86,.06s.52,.11,.76,.21v.97c-.25-.13-.51-.23-.78-.29s-.54-.09-.82-.09c-.26,0-.51,.05-.74,.15s-.44,.24-.61,.43-.31,.42-.42,.69-.15,.57-.15,.91c0,.71,.17,1.24,.52,1.6s.83,.53,1.44,.53c.28,0,.55-.03,.81-.09s.51-.16,.75-.28v.95Z"/><path class="cls-5" d="M248.58,405.24c-.23,.06-.47,.1-.71,.13s-.5,.04-.75,.04c-.74,0-1.29-.17-1.65-.5s-.54-.85-.54-1.54v-3.07h-1.65v-.86h1.65v-1.62l1.02-.26v1.88h2.64v.86h-2.64v2.99c0,.42,.11,.74,.34,.95s.56,.31,.99,.31c.19,0,.39-.01,.62-.04s.46-.08,.7-.14v.88Z"/><path class="cls-5" d="M252.44,400.28h-1.74v-.84h2.77v5.03h1.75v.85h-4.72v-.85h1.93v-4.19Zm.36-3.31c.11,0,.22,.02,.32,.06s.18,.1,.25,.17,.13,.16,.17,.25,.06,.2,.06,.31-.02,.21-.06,.31-.1,.18-.17,.26-.16,.13-.25,.17-.2,.06-.32,.06-.22-.02-.32-.06-.18-.1-.25-.17-.13-.16-.17-.26-.06-.2-.06-.31,.02-.22,.06-.31,.1-.18,.17-.25,.16-.13,.25-.17,.2-.06,.32-.06Z"/><path class="cls-5" d="M262.15,402.33c0,.46-.06,.88-.19,1.26s-.31,.71-.56,.98-.54,.48-.88,.63-.74,.23-1.18,.23-.8-.07-1.13-.2-.62-.32-.85-.58-.41-.57-.53-.94-.18-.81-.18-1.29c0-.46,.06-.87,.19-1.25s.31-.7,.56-.97,.54-.48,.88-.63,.74-.23,1.18-.23,.8,.07,1.13,.2,.62,.32,.85,.57,.41,.57,.53,.94,.18,.8,.18,1.29Zm-1.04,.05c0-.36-.04-.68-.12-.95s-.19-.5-.34-.68-.33-.32-.54-.41-.45-.14-.71-.14c-.3,0-.57,.06-.78,.18s-.39,.28-.53,.48-.24,.43-.3,.69-.1,.54-.1,.83c0,.36,.04,.68,.12,.96s.19,.5,.34,.68,.33,.32,.54,.41,.45,.14,.71,.14c.3,0,.57-.06,.78-.18s.39-.28,.53-.48,.24-.43,.3-.69,.1-.54,.1-.83Z"/><path class="cls-5" d="M263.63,399.44h.91l.04,.95c.17-.2,.34-.37,.5-.51s.32-.24,.47-.33,.31-.14,.47-.17,.33-.05,.5-.05c.61,0,1.06,.18,1.37,.54s.47,.9,.47,1.61v3.84h-1.02v-3.76c0-.46-.09-.8-.26-1.02s-.43-.33-.77-.33c-.12,0-.25,.02-.37,.06s-.24,.1-.37,.19-.27,.22-.42,.37-.32,.35-.51,.59v3.9h-1.02v-5.88Z"/><path class="cls-5" d="M281.55,397.04l-4.02,9.54h-.97l4.02-9.54h.97Z"/><path class="cls-5" d="M294.21,405.32v-4.22c0-.18,0-.33-.02-.45s-.04-.21-.06-.28-.07-.12-.11-.14-.1-.04-.17-.04c-.08,0-.15,.02-.22,.07s-.14,.12-.21,.23-.16,.25-.25,.42-.2,.39-.33,.64v3.78h-.93v-4.11c0-.21,0-.39-.02-.52s-.04-.24-.06-.31-.07-.12-.11-.15-.1-.04-.17-.04c-.07,0-.14,.02-.2,.06s-.13,.11-.21,.21-.16,.24-.25,.42-.21,.4-.33,.67v3.78h-.94v-5.88h.78l.05,1.12c.1-.22,.2-.41,.3-.57s.19-.28,.3-.38,.21-.17,.33-.21,.24-.07,.38-.07c.32,0,.56,.1,.72,.31s.25,.53,.25,.96c.09-.2,.19-.38,.28-.54s.19-.29,.29-.4,.22-.19,.34-.25,.27-.08,.43-.08c.74,0,1.11,.57,1.11,1.71v4.28h-.94Z"/><path class="cls-5" d="M301.58,402.07c0,.14,0,.27,0,.36s0,.19-.02,.28h-4.13c0,.6,.17,1.06,.5,1.39s.82,.48,1.45,.48c.17,0,.34,0,.52-.02s.34-.03,.5-.06,.31-.05,.46-.08,.28-.06,.41-.1v.84c-.28,.08-.59,.14-.94,.19s-.71,.07-1.09,.07c-.5,0-.94-.07-1.3-.21s-.66-.33-.89-.59-.4-.58-.52-.96-.17-.8-.17-1.28c0-.41,.06-.81,.18-1.17s.29-.69,.52-.97,.51-.5,.84-.67,.71-.25,1.13-.25,.77,.06,1.09,.19,.58,.31,.8,.55,.38,.52,.49,.86,.17,.72,.17,1.13Zm-1.06-.15c.01-.26-.01-.5-.08-.72s-.16-.4-.29-.56-.29-.28-.49-.37-.42-.13-.68-.13c-.22,0-.43,.04-.61,.13s-.34,.21-.47,.36-.24,.34-.32,.56-.13,.46-.15,.72h3.09Z"/><path class="cls-5" d="M307.95,405.24c-.23,.06-.47,.1-.71,.13s-.5,.04-.75,.04c-.74,0-1.29-.17-1.65-.5s-.54-.85-.54-1.54v-3.07h-1.65v-.86h1.65v-1.62l1.02-.26v1.88h2.64v.86h-2.64v2.99c0,.42,.11,.74,.34,.95s.56,.31,.99,.31c.19,0,.39-.01,.62-.04s.46-.08,.7-.14v.88Z"/><path class="cls-5" d="M314.54,405.32h-1.02v-3.76c0-.45-.08-.79-.25-1.02s-.41-.34-.73-.34c-.14,0-.26,.02-.38,.06s-.24,.1-.37,.19-.27,.22-.42,.37-.33,.35-.53,.59v3.9h-1.02v-8.28h1.02v2.4l-.04,.93c.16-.19,.32-.35,.47-.48s.31-.24,.46-.32,.31-.14,.47-.18,.33-.05,.5-.05c.59,0,1.04,.18,1.36,.54s.48,.9,.48,1.61v3.84Z"/><path class="cls-5" d="M321.53,402.33c0,.46-.06,.88-.19,1.26s-.31,.71-.56,.98-.54,.48-.88,.63-.74,.23-1.18,.23-.8-.07-1.13-.2-.62-.32-.85-.58-.41-.57-.53-.94-.18-.81-.18-1.29c0-.46,.06-.87,.19-1.25s.31-.7,.56-.97,.54-.48,.88-.63,.74-.23,1.18-.23,.8,.07,1.13,.2,.62,.32,.85,.57,.41,.57,.53,.94,.18,.8,.18,1.29Zm-1.04,.05c0-.36-.04-.68-.12-.95s-.19-.5-.34-.68-.33-.32-.54-.41-.45-.14-.71-.14c-.3,0-.57,.06-.78,.18s-.39,.28-.53,.48-.24,.43-.3,.69-.1,.54-.1,.83c0,.36,.04,.68,.12,.96s.19,.5,.34,.68,.33,.32,.54,.41,.45,.14,.71,.14c.3,0,.57-.06,.78-.18s.39-.28,.53-.48,.24-.43,.3-.69,.1-.54,.1-.83Z"/><path class="cls-5" d="M322.71,402.5c0-.5,.07-.94,.21-1.33s.33-.72,.58-.98,.55-.47,.91-.61,.75-.21,1.18-.21c.19,0,.37,.01,.55,.04s.36,.06,.54,.11v-2.47h1.03v8.28h-.91l-.04-1.11c-.29,.41-.59,.72-.93,.92s-.69,.3-1.08,.3c-.34,0-.63-.07-.89-.21s-.47-.34-.64-.59-.3-.56-.38-.92-.13-.76-.13-1.2Zm1.04-.06c0,.71,.1,1.24,.31,1.59s.5,.52,.89,.52c.26,0,.53-.12,.82-.35s.59-.57,.91-1.03v-2.73c-.17-.08-.35-.14-.56-.18s-.4-.06-.6-.06c-.55,0-.99,.18-1.3,.54s-.47,.92-.47,1.69Z"/><path class="cls-5" d="M339.71,407.78c-.95-.8-1.66-1.67-2.14-2.59s-.71-1.91-.71-2.98c0-.59,.07-1.16,.21-1.68s.34-1.03,.59-1.49,.56-.9,.91-1.31,.74-.79,1.16-1.15l.81,.81c-.76,.68-1.33,1.42-1.72,2.21s-.57,1.63-.57,2.5,.19,1.74,.57,2.56,.96,1.57,1.72,2.24l-.85,.87Z"/><path class="cls-5" d="M348.02,398.25c-.17-.05-.38-.1-.61-.14s-.48-.06-.72-.06c-.17,0-.32,.02-.47,.07s-.27,.12-.38,.21-.19,.22-.25,.37-.09,.33-.09,.55v.96h2.34v1.11h-2.34v3.98h-1.44v-3.98h-1.73v-1.11h1.73v-.9c0-.42,.06-.78,.18-1.09s.3-.55,.52-.74,.5-.33,.81-.42,.67-.13,1.06-.13c.26,0,.5,.02,.74,.05s.45,.07,.65,.12v1.15Z"/><path class="cls-5" d="M350.69,399.36v3.88c0,.32,.06,.57,.18,.74s.3,.25,.55,.25,.47-.1,.69-.3,.45-.46,.7-.8v-3.77h1.43v5.95h-1.24l-.04-.88c-.12,.15-.25,.29-.38,.42s-.27,.23-.42,.32-.31,.16-.49,.21-.37,.07-.59,.07c-.3,0-.57-.05-.8-.15s-.42-.24-.57-.42-.27-.4-.34-.66-.11-.54-.11-.86v-4h1.43Z"/><path class="cls-5" d="M359.42,405.32v-3.88c0-.65-.24-.98-.73-.98-.24,0-.47,.1-.69,.29s-.45,.46-.7,.8v3.77h-1.43v-5.95h1.24l.04,.88c.12-.15,.25-.29,.38-.42s.27-.23,.42-.32,.32-.16,.49-.2,.37-.07,.59-.07c.3,0,.57,.05,.8,.15s.42,.24,.57,.42,.27,.4,.34,.66,.11,.54,.11,.86v4h-1.43Z"/><path class="cls-5" d="M367.29,405.09c-.28,.11-.57,.2-.87,.25s-.62,.08-.94,.08c-.47,0-.9-.06-1.27-.19s-.69-.32-.96-.57-.46-.57-.6-.94-.21-.81-.21-1.3,.08-.91,.23-1.29,.36-.72,.64-.99,.6-.48,.99-.63,.81-.22,1.29-.22c.39,0,.71,.02,.98,.06s.5,.09,.71,.16v1.39c-.24-.12-.5-.21-.79-.28s-.55-.1-.81-.1-.5,.04-.71,.13-.39,.21-.53,.38-.25,.35-.33,.58-.11,.48-.11,.75,.04,.54,.12,.77,.2,.42,.35,.58,.33,.28,.54,.36,.45,.13,.7,.13c.12,0,.26,0,.4-.03s.28-.04,.42-.08,.28-.07,.41-.11,.26-.09,.38-.14v1.27Z"/><path class="cls-5" d="M373.98,405.26c-.26,.06-.52,.11-.78,.14s-.51,.05-.74,.05c-.39,0-.73-.04-1.01-.12s-.52-.21-.7-.38-.32-.38-.41-.64-.13-.57-.13-.93v-2.91h-1.6v-1.11h1.6v-1.52l1.46-.38v1.9h2.31v1.11h-2.31v2.8c0,.34,.08,.6,.23,.77s.42,.26,.79,.26c.23,0,.46-.02,.69-.06s.43-.08,.61-.13v1.14Z"/><path class="cls-5" d="M377.59,400.48h-1.68v-1.11h3.15v4.84h1.72v1.11h-5.07v-1.11h1.89v-3.73Zm1.58-2.74c0,.13-.02,.25-.07,.36s-.11,.21-.2,.3-.18,.15-.3,.2-.24,.07-.37,.07-.26-.02-.37-.07-.21-.12-.3-.2-.15-.18-.2-.3-.07-.23-.07-.36,.02-.25,.07-.36,.11-.21,.2-.3,.18-.15,.3-.2,.24-.07,.37-.07,.26,.02,.37,.07,.21,.12,.3,.2,.15,.19,.2,.3,.07,.23,.07,.36Z"/><path class="cls-5" d="M387.62,402.29c0,.47-.07,.9-.2,1.29s-.32,.72-.57,1-.56,.49-.92,.64-.78,.23-1.24,.23-.84-.06-1.18-.19-.64-.32-.88-.58-.43-.58-.56-.96-.19-.83-.19-1.34c0-.47,.07-.9,.2-1.29s.33-.72,.58-.99,.56-.49,.92-.64,.77-.23,1.23-.23,.84,.07,1.19,.2,.64,.33,.88,.58,.43,.58,.55,.96,.19,.82,.19,1.32Zm-1.49,.04c0-.62-.12-1.08-.35-1.39s-.58-.47-1.03-.47c-.25,0-.46,.05-.64,.15s-.32,.23-.43,.4-.2,.37-.25,.59-.08,.47-.08,.73c0,.62,.12,1.09,.38,1.4s.59,.47,1.03,.47c.24,0,.45-.05,.62-.14s.32-.23,.43-.4,.19-.37,.25-.6,.08-.48,.08-.74Z"/><path class="cls-5" d="M392.41,405.32v-3.88c0-.65-.24-.98-.73-.98-.24,0-.47,.1-.69,.29s-.45,.46-.7,.8v3.77h-1.43v-5.95h1.24l.04,.88c.12-.15,.25-.29,.38-.42s.27-.23,.42-.32,.32-.16,.49-.2,.37-.07,.59-.07c.3,0,.57,.05,.8,.15s.42,.24,.57,.42,.27,.4,.34,.66,.11,.54,.11,.86v4h-1.43Z"/><path class="cls-5" d="M396.83,396.58c.96,.8,1.67,1.66,2.14,2.58s.7,1.92,.7,2.99c0,.59-.07,1.15-.21,1.68s-.34,1.03-.59,1.49-.55,.91-.91,1.32-.74,.79-1.16,1.14l-.82-.81c.77-.68,1.34-1.42,1.72-2.22s.57-1.63,.57-2.51-.19-1.73-.57-2.55-.96-1.57-1.72-2.25l.84-.85Z"/><path class="cls-5" d="M217.98,417.16v-1.27h3.64v1.27h-3.64Z"/><path class="cls-5" d="M239.57,419.72l-.14-4.33-.05-1.73-.37,1.17-.85,2.61h-.9l-.77-2.61-.32-1.17-.04,1.69-.13,4.37h-1.22l.38-7.66h1.63l.67,2.17,.32,1.22,.32-1.15,.71-2.24h1.66l.38,7.66h-1.27Z"/><path class="cls-5" d="M247.1,416.28c0,.1,0,.22,0,.38s-.01,.3-.03,.44h-3.91c0,.26,.04,.49,.12,.69s.19,.37,.34,.5,.32,.24,.53,.31,.43,.11,.68,.11c.29,0,.6-.02,.93-.07s.67-.12,1.03-.22v1.14c-.15,.04-.32,.08-.5,.12s-.36,.07-.55,.09-.38,.05-.57,.06-.38,.02-.56,.02c-.45,0-.86-.06-1.22-.19s-.66-.32-.91-.57-.44-.56-.57-.93-.2-.8-.2-1.29,.07-.92,.2-1.32,.32-.74,.56-1.02,.54-.5,.88-.66,.73-.23,1.16-.23,.79,.07,1.12,.2,.6,.31,.81,.55,.38,.51,.5,.84,.17,.68,.17,1.07Zm-1.45-.21c0-.23-.03-.44-.09-.61s-.15-.32-.25-.43-.23-.2-.38-.25-.3-.08-.46-.08c-.36,0-.65,.12-.88,.36s-.37,.58-.41,1.02h2.47Z"/><path class="cls-5" d="M252.72,419.72v-4.05c0-.15,0-.28-.01-.39s-.02-.2-.05-.28-.06-.13-.1-.17-.11-.06-.18-.06c-.12,0-.24,.08-.36,.25s-.25,.44-.4,.84v3.86h-1.22v-4.05c0-.15,0-.28-.01-.39s-.02-.2-.05-.28-.06-.13-.11-.17-.11-.06-.19-.06c-.1,0-.21,.08-.34,.25s-.26,.44-.42,.84v3.86h-1.24v-5.95h1.06l.02,.87c.09-.18,.17-.33,.26-.45s.18-.23,.28-.31,.2-.14,.31-.17,.24-.05,.38-.05c.33,0,.58,.09,.76,.26s.27,.42,.3,.72c.09-.18,.19-.33,.28-.45s.19-.23,.29-.31,.21-.14,.32-.17,.24-.05,.38-.05c.43,0,.75,.15,.96,.45s.31,.75,.31,1.34v4.27h-1.24Z"/><path class="cls-5" d="M258.85,419.72l-.04-.78c-.12,.13-.26,.25-.39,.37s-.29,.21-.45,.29-.34,.15-.54,.19-.41,.07-.64,.07c-.3,0-.57-.04-.8-.13s-.42-.21-.58-.38-.27-.35-.35-.58-.12-.48-.12-.75,.06-.54,.18-.78,.3-.44,.54-.62,.55-.31,.91-.4,.79-.15,1.29-.15h.78v-.36c0-.15-.02-.29-.06-.41s-.11-.23-.21-.31-.22-.15-.37-.2-.34-.07-.56-.07c-.35,0-.7,.04-1.04,.12s-.67,.19-.99,.34v-1.14c.29-.11,.61-.21,.99-.28s.76-.11,1.16-.11c.44,0,.82,.04,1.14,.13s.58,.21,.78,.38,.36,.38,.45,.63,.15,.55,.15,.88v4.07h-1.22Zm-.21-2.63h-.87c-.24,0-.45,.02-.62,.07s-.3,.11-.41,.19-.18,.18-.23,.28-.07,.22-.07,.34c0,.24,.08,.43,.23,.55s.37,.19,.64,.19c.2,0,.41-.07,.62-.22s.45-.35,.71-.62v-.8Z"/><path class="cls-5" d="M266.62,417.97c0,.34-.08,.63-.23,.87s-.35,.44-.6,.59-.53,.26-.84,.33-.64,.1-.96,.1c-.44,0-.83-.02-1.18-.06s-.68-.1-1-.18v-1.29c.37,.15,.73,.26,1.1,.33s.71,.1,1.03,.1c.38,0,.66-.06,.84-.18s.28-.27,.28-.47c0-.09-.02-.17-.06-.25s-.11-.15-.22-.21-.26-.14-.45-.21-.45-.15-.77-.24c-.29-.08-.55-.17-.77-.28s-.4-.23-.55-.37-.25-.3-.33-.49-.11-.4-.11-.65,.05-.47,.16-.69,.27-.4,.49-.57,.49-.29,.81-.38,.7-.14,1.14-.14c.38,0,.71,.02,1,.06s.54,.08,.77,.13v1.17c-.34-.11-.66-.19-.96-.23s-.59-.07-.89-.07-.53,.05-.71,.16-.27,.25-.27,.44c0,.09,.02,.17,.05,.24s.1,.14,.21,.21,.25,.14,.43,.21,.43,.15,.74,.24c.34,.1,.63,.2,.87,.31s.42,.24,.57,.38,.25,.3,.31,.48,.09,.38,.09,.62Z"/><path class="cls-5" d="M272.04,419.72l-.04-.78c-.12,.13-.26,.25-.39,.37s-.29,.21-.45,.29-.34,.15-.54,.19-.41,.07-.64,.07c-.3,0-.57-.04-.8-.13s-.42-.21-.58-.38-.27-.35-.35-.58-.12-.48-.12-.75,.06-.54,.18-.78,.3-.44,.54-.62,.55-.31,.91-.4,.79-.15,1.29-.15h.78v-.36c0-.15-.02-.29-.06-.41s-.11-.23-.21-.31-.22-.15-.37-.2-.34-.07-.56-.07c-.35,0-.7,.04-1.04,.12s-.67,.19-.99,.34v-1.14c.29-.11,.61-.21,.99-.28s.76-.11,1.16-.11c.44,0,.82,.04,1.14,.13s.58,.21,.78,.38,.36,.38,.45,.63,.15,.55,.15,.88v4.07h-1.22Zm-.21-2.63h-.87c-.24,0-.45,.02-.62,.07s-.3,.11-.41,.19-.18,.18-.23,.28-.07,.22-.07,.34c0,.24,.08,.43,.23,.55s.37,.19,.64,.19c.2,0,.41-.07,.62-.22s.45-.35,.71-.62v-.8Z"/><path class="cls-5" d="M278.59,419.72l-2.2-2.98v2.98h-1.43v-8.28h1.43v4.85l2.08-2.52h1.79l-2.41,2.71,2.61,3.24h-1.87Z"/><path class="cls-5" d="M293.39,414.5c0,.4-.07,.77-.2,1.1s-.33,.63-.59,.88-.59,.44-.98,.57-.84,.21-1.36,.21h-.73v2.46h-1.45v-7.66h2.24c.5,0,.93,.05,1.32,.16s.7,.26,.96,.47,.46,.46,.59,.76,.2,.65,.2,1.04Zm-1.51,.1c0-.2-.03-.39-.1-.55s-.16-.31-.29-.42-.3-.21-.5-.27-.44-.09-.71-.09h-.76v2.81h.8c.25,0,.47-.03,.66-.1s.35-.17,.48-.3,.23-.28,.3-.46,.1-.38,.1-.6Z"/><path class="cls-5" d="M299.89,416.28c0,.1,0,.22,0,.38s-.01,.3-.03,.44h-3.91c0,.26,.04,.49,.12,.69s.19,.37,.34,.5,.32,.24,.53,.31,.43,.11,.68,.11c.29,0,.6-.02,.93-.07s.67-.12,1.03-.22v1.14c-.15,.04-.32,.08-.5,.12s-.36,.07-.55,.09-.38,.05-.57,.06-.38,.02-.56,.02c-.45,0-.86-.06-1.22-.19s-.66-.32-.91-.57-.44-.56-.57-.93-.2-.8-.2-1.29,.07-.92,.2-1.32,.32-.74,.56-1.02,.54-.5,.88-.66,.73-.23,1.16-.23,.79,.07,1.12,.2,.6,.31,.81,.55,.38,.51,.5,.84,.17,.68,.17,1.07Zm-1.45-.21c0-.23-.03-.44-.09-.61s-.15-.32-.25-.43-.23-.2-.38-.25-.3-.08-.46-.08c-.36,0-.65,.12-.88,.36s-.37,.58-.41,1.02h2.47Z"/><path class="cls-5" d="M306.21,417.97c0,.34-.08,.63-.23,.87s-.35,.44-.6,.59-.53,.26-.84,.33-.64,.1-.96,.1c-.44,0-.83-.02-1.18-.06s-.68-.1-1-.18v-1.29c.37,.15,.73,.26,1.1,.33s.71,.1,1.03,.1c.38,0,.66-.06,.84-.18s.28-.27,.28-.47c0-.09-.02-.17-.06-.25s-.11-.15-.22-.21-.26-.14-.45-.21-.45-.15-.77-.24c-.29-.08-.55-.17-.77-.28s-.4-.23-.55-.37-.25-.3-.33-.49-.11-.4-.11-.65,.05-.47,.16-.69,.27-.4,.49-.57,.49-.29,.81-.38,.7-.14,1.14-.14c.38,0,.71,.02,1,.06s.54,.08,.77,.13v1.17c-.34-.11-.66-.19-.96-.23s-.59-.07-.89-.07-.53,.05-.71,.16-.27,.25-.27,.44c0,.09,.02,.17,.05,.24s.1,.14,.21,.21,.25,.14,.43,.21,.43,.15,.74,.24c.34,.1,.63,.2,.87,.31s.42,.24,.57,.38,.25,.3,.31,.48,.09,.38,.09,.62Z"/><path class="cls-5" d="M311.63,419.72l-.04-.78c-.12,.13-.26,.25-.39,.37s-.29,.21-.45,.29-.34,.15-.54,.19-.41,.07-.64,.07c-.3,0-.57-.04-.8-.13s-.42-.21-.58-.38-.27-.35-.35-.58-.12-.48-.12-.75,.06-.54,.18-.78,.3-.44,.54-.62,.55-.31,.91-.4,.79-.15,1.29-.15h.78v-.36c0-.15-.02-.29-.06-.41s-.11-.23-.21-.31-.22-.15-.37-.2-.34-.07-.56-.07c-.35,0-.7,.04-1.04,.12s-.67,.19-.99,.34v-1.14c.29-.11,.61-.21,.99-.28s.76-.11,1.16-.11c.44,0,.82,.04,1.14,.13s.58,.21,.78,.38,.36,.38,.45,.63,.15,.55,.15,.88v4.07h-1.22Zm-.21-2.63h-.87c-.24,0-.45,.02-.62,.07s-.3,.11-.41,.19-.18,.18-.23,.28-.07,.22-.07,.34c0,.24,.08,.43,.23,.55s.37,.19,.64,.19c.2,0,.41-.07,.62-.22s.45-.35,.71-.62v-.8Z"/><path class="cls-5" d="M318.04,419.72v-3.88c0-.65-.24-.98-.73-.98-.24,0-.47,.1-.69,.29s-.45,.46-.7,.8v3.77h-1.43v-5.95h1.24l.04,.88c.12-.15,.25-.29,.38-.42s.27-.23,.42-.32,.32-.16,.49-.2,.37-.07,.59-.07c.3,0,.57,.05,.8,.15s.42,.24,.57,.42,.27,.4,.34,.66,.11,.54,.11,.86v4h-1.43Z"/><path class="cls-5" d="M324.82,419.72l-.04-.78c-.12,.13-.26,.25-.39,.37s-.29,.21-.45,.29-.34,.15-.54,.19-.41,.07-.64,.07c-.3,0-.57-.04-.8-.13s-.42-.21-.58-.38-.27-.35-.35-.58-.12-.48-.12-.75,.06-.54,.18-.78,.3-.44,.54-.62,.55-.31,.91-.4,.79-.15,1.29-.15h.78v-.36c0-.15-.02-.29-.06-.41s-.11-.23-.21-.31-.22-.15-.37-.2-.34-.07-.56-.07c-.35,0-.7,.04-1.04,.12s-.67,.19-.99,.34v-1.14c.29-.11,.61-.21,.99-.28s.76-.11,1.16-.11c.44,0,.82,.04,1.14,.13s.58,.21,.78,.38,.36,.38,.45,.63,.15,.55,.15,.88v4.07h-1.22Zm-.21-2.63h-.87c-.24,0-.45,.02-.62,.07s-.3,.11-.41,.19-.18,.18-.23,.28-.07,.22-.07,.34c0,.24,.08,.43,.23,.55s.37,.19,.64,.19c.2,0,.41-.07,.62-.22s.45-.35,.71-.62v-.8Z"/><path class="cls-5" d="M331.24,419.72v-3.88c0-.65-.24-.98-.73-.98-.24,0-.47,.1-.69,.29s-.45,.46-.7,.8v3.77h-1.43v-5.95h1.24l.04,.88c.12-.15,.25-.29,.38-.42s.27-.23,.42-.32,.32-.16,.49-.2,.37-.07,.59-.07c.3,0,.57,.05,.8,.15s.42,.24,.57,.42,.27,.4,.34,.66,.11,.54,.11,.86v4h-1.43Z"/><path class="cls-5" d="M217.98,431.56v-1.27h3.64v1.27h-3.64Z"/><path class="cls-5" d="M239.57,434.12l-.14-4.33-.05-1.73-.37,1.17-.85,2.61h-.9l-.77-2.61-.32-1.17-.04,1.69-.13,4.37h-1.22l.38-7.66h1.63l.67,2.17,.32,1.22,.32-1.15,.71-2.24h1.66l.38,7.66h-1.27Z"/><path class="cls-5" d="M247.1,430.68c0,.1,0,.22,0,.38s-.01,.3-.03,.44h-3.91c0,.26,.04,.49,.12,.69s.19,.37,.34,.5,.32,.24,.53,.31,.43,.11,.68,.11c.29,0,.6-.02,.93-.07s.67-.12,1.03-.22v1.14c-.15,.04-.32,.08-.5,.12s-.36,.07-.55,.09-.38,.05-.57,.06-.38,.02-.56,.02c-.45,0-.86-.06-1.22-.19s-.66-.32-.91-.57-.44-.56-.57-.93-.2-.8-.2-1.29,.07-.92,.2-1.32,.32-.74,.56-1.02,.54-.5,.88-.66,.73-.23,1.16-.23,.79,.07,1.12,.2,.6,.31,.81,.55,.38,.51,.5,.84,.17,.68,.17,1.07Zm-1.45-.21c0-.23-.03-.44-.09-.61s-.15-.32-.25-.43-.23-.2-.38-.25-.3-.08-.46-.08c-.36,0-.65,.12-.88,.36s-.37,.58-.41,1.02h2.47Z"/><path class="cls-5" d="M250.44,426.95h-1.68v-1.11h3.15v7.17h1.72v1.11h-5.07v-1.11h1.89v-6.05Z"/><path class="cls-5" d="M257.04,429.28h-1.68v-1.11h3.15v4.84h1.72v1.11h-5.07v-1.11h1.89v-3.73Zm1.58-2.74c0,.13-.02,.25-.07,.36s-.11,.21-.2,.3-.18,.15-.3,.2-.24,.07-.37,.07-.26-.02-.37-.07-.21-.12-.3-.2-.15-.18-.2-.3-.07-.23-.07-.36,.02-.25,.07-.36,.11-.21,.2-.3,.18-.15,.3-.2,.24-.07,.37-.07,.26,.02,.37,.07,.21,.12,.3,.2,.15,.19,.2,.3,.07,.23,.07,.36Z"/><path class="cls-5" d="M265.26,434.12v-3.88c0-.65-.24-.98-.73-.98-.24,0-.47,.1-.69,.29s-.45,.46-.7,.8v3.77h-1.43v-8.28h1.43v2.04l-.07,1.08c.12-.14,.24-.27,.37-.39s.26-.21,.4-.29,.3-.14,.47-.18,.35-.06,.56-.06c.3,0,.57,.05,.8,.15s.42,.24,.57,.42,.27,.4,.34,.66,.11,.54,.11,.86v4h-1.43Z"/><path class="cls-5" d="M272.04,434.12l-.04-.78c-.12,.13-.26,.25-.39,.37s-.29,.21-.45,.29-.34,.15-.54,.19-.41,.07-.64,.07c-.3,0-.57-.04-.8-.13s-.42-.21-.58-.38-.27-.35-.35-.58-.12-.48-.12-.75,.06-.54,.18-.78,.3-.44,.54-.62,.55-.31,.91-.4,.79-.15,1.29-.15h.78v-.36c0-.15-.02-.29-.06-.41s-.11-.23-.21-.31-.22-.15-.37-.2-.34-.07-.56-.07c-.35,0-.7,.04-1.04,.12s-.67,.19-.99,.34v-1.14c.29-.11,.61-.21,.99-.28s.76-.11,1.16-.11c.44,0,.82,.04,1.14,.13s.58,.21,.78,.38,.36,.38,.45,.63,.15,.55,.15,.88v4.07h-1.22Zm-.21-2.63h-.87c-.24,0-.45,.02-.62,.07s-.3,.11-.41,.19-.18,.18-.23,.28-.07,.22-.07,.34c0,.24,.08,.43,.23,.55s.37,.19,.64,.19c.2,0,.41-.07,.62-.22s.45-.35,.71-.62v-.8Z"/><path class="cls-5" d="M279.82,434.06c-.26,.06-.52,.11-.78,.14s-.51,.05-.74,.05c-.39,0-.73-.04-1.01-.12s-.52-.21-.7-.38-.32-.38-.41-.64-.13-.57-.13-.93v-2.91h-1.6v-1.11h1.6v-1.52l1.46-.38v1.9h2.31v1.11h-2.31v2.8c0,.34,.08,.6,.23,.77s.42,.26,.79,.26c.23,0,.46-.02,.69-.06s.43-.08,.61-.13v1.14Z"/><path class="cls-5" d="M293.39,428.9c0,.4-.07,.77-.2,1.1s-.33,.63-.59,.88-.59,.44-.98,.57-.84,.21-1.36,.21h-.73v2.46h-1.45v-7.66h2.24c.5,0,.93,.05,1.32,.16s.7,.26,.96,.47,.46,.46,.59,.76,.2,.65,.2,1.04Zm-1.51,.1c0-.2-.03-.39-.1-.55s-.16-.31-.29-.42-.3-.21-.5-.27-.44-.09-.71-.09h-.76v2.81h.8c.25,0,.47-.03,.66-.1s.35-.17,.48-.3,.23-.28,.3-.46,.1-.38,.1-.6Z"/><path class="cls-5" d="M299.89,430.68c0,.1,0,.22,0,.38s-.01,.3-.03,.44h-3.91c0,.26,.04,.49,.12,.69s.19,.37,.34,.5,.32,.24,.53,.31,.43,.11,.68,.11c.29,0,.6-.02,.93-.07s.67-.12,1.03-.22v1.14c-.15,.04-.32,.08-.5,.12s-.36,.07-.55,.09-.38,.05-.57,.06-.38,.02-.56,.02c-.45,0-.86-.06-1.22-.19s-.66-.32-.91-.57-.44-.56-.57-.93-.2-.8-.2-1.29,.07-.92,.2-1.32,.32-.74,.56-1.02,.54-.5,.88-.66,.73-.23,1.16-.23,.79,.07,1.12,.2,.6,.31,.81,.55,.38,.51,.5,.84,.17,.68,.17,1.07Zm-1.45-.21c0-.23-.03-.44-.09-.61s-.15-.32-.25-.43-.23-.2-.38-.25-.3-.08-.46-.08c-.36,0-.65,.12-.88,.36s-.37,.58-.41,1.02h2.47Z"/><path class="cls-5" d="M306.21,432.37c0,.34-.08,.63-.23,.87s-.35,.44-.6,.59-.53,.26-.84,.33-.64,.1-.96,.1c-.44,0-.83-.02-1.18-.06s-.68-.1-1-.18v-1.29c.37,.15,.73,.26,1.1,.33s.71,.1,1.03,.1c.38,0,.66-.06,.84-.18s.28-.27,.28-.47c0-.09-.02-.17-.06-.25s-.11-.15-.22-.21-.26-.14-.45-.21-.45-.15-.77-.24c-.29-.08-.55-.17-.77-.28s-.4-.23-.55-.37-.25-.3-.33-.49-.11-.4-.11-.65,.05-.47,.16-.69,.27-.4,.49-.57,.49-.29,.81-.38,.7-.14,1.14-.14c.38,0,.71,.02,1,.06s.54,.08,.77,.13v1.17c-.34-.11-.66-.19-.96-.23s-.59-.07-.89-.07-.53,.05-.71,.16-.27,.25-.27,.44c0,.09,.02,.17,.05,.24s.1,.14,.21,.21,.25,.14,.43,.21,.43,.15,.74,.24c.34,.1,.63,.2,.87,.31s.42,.24,.57,.38,.25,.3,.31,.48,.09,.38,.09,.62Z"/><path class="cls-5" d="M311.63,434.12l-.04-.78c-.12,.13-.26,.25-.39,.37s-.29,.21-.45,.29-.34,.15-.54,.19-.41,.07-.64,.07c-.3,0-.57-.04-.8-.13s-.42-.21-.58-.38-.27-.35-.35-.58-.12-.48-.12-.75,.06-.54,.18-.78,.3-.44,.54-.62,.55-.31,.91-.4,.79-.15,1.29-.15h.78v-.36c0-.15-.02-.29-.06-.41s-.11-.23-.21-.31-.22-.15-.37-.2-.34-.07-.56-.07c-.35,0-.7,.04-1.04,.12s-.67,.19-.99,.34v-1.14c.29-.11,.61-.21,.99-.28s.76-.11,1.16-.11c.44,0,.82,.04,1.14,.13s.58,.21,.78,.38,.36,.38,.45,.63,.15,.55,.15,.88v4.07h-1.22Zm-.21-2.63h-.87c-.24,0-.45,.02-.62,.07s-.3,.11-.41,.19-.18,.18-.23,.28-.07,.22-.07,.34c0,.24,.08,.43,.23,.55s.37,.19,.64,.19c.2,0,.41-.07,.62-.22s.45-.35,.71-.62v-.8Z"/><path class="cls-5" d="M318.04,434.12v-3.88c0-.65-.24-.98-.73-.98-.24,0-.47,.1-.69,.29s-.45,.46-.7,.8v3.77h-1.43v-5.95h1.24l.04,.88c.12-.15,.25-.29,.38-.42s.27-.23,.42-.32,.32-.16,.49-.2,.37-.07,.59-.07c.3,0,.57,.05,.8,.15s.42,.24,.57,.42,.27,.4,.34,.66,.11,.54,.11,.86v4h-1.43Z"/><path class="cls-5" d="M324.82,434.12l-.04-.78c-.12,.13-.26,.25-.39,.37s-.29,.21-.45,.29-.34,.15-.54,.19-.41,.07-.64,.07c-.3,0-.57-.04-.8-.13s-.42-.21-.58-.38-.27-.35-.35-.58-.12-.48-.12-.75,.06-.54,.18-.78,.3-.44,.54-.62,.55-.31,.91-.4,.79-.15,1.29-.15h.78v-.36c0-.15-.02-.29-.06-.41s-.11-.23-.21-.31-.22-.15-.37-.2-.34-.07-.56-.07c-.35,0-.7,.04-1.04,.12s-.67,.19-.99,.34v-1.14c.29-.11,.61-.21,.99-.28s.76-.11,1.16-.11c.44,0,.82,.04,1.14,.13s.58,.21,.78,.38,.36,.38,.45,.63,.15,.55,.15,.88v4.07h-1.22Zm-.21-2.63h-.87c-.24,0-.45,.02-.62,.07s-.3,.11-.41,.19-.18,.18-.23,.28-.07,.22-.07,.34c0,.24,.08,.43,.23,.55s.37,.19,.64,.19c.2,0,.41-.07,.62-.22s.45-.35,.71-.62v-.8Z"/><path class="cls-5" d="M331.24,434.12v-3.88c0-.65-.24-.98-.73-.98-.24,0-.47,.1-.69,.29s-.45,.46-.7,.8v3.77h-1.43v-5.95h1.24l.04,.88c.12-.15,.25-.29,.38-.42s.27-.23,.42-.32,.32-.16,.49-.2,.37-.07,.59-.07c.3,0,.57,.05,.8,.15s.42,.24,.57,.42,.27,.4,.34,.66,.11,.54,.11,.86v4h-1.43Z"/></g><polygon class="cls-7" points="196.8 369.09 175.63 356.88 175.63 381.31 196.8 369.09"/></svg>